<?xml version="1.0" encoding="utf-8"?>
<svg xmlns="http://www.w3.org/2000/svg" viewBox="0 0 48 48" width="48" height="48">
  <path d="M24 2C21.2 2 19.500391 2.8 18.400391 4L15.5 4C13.7 4 12.299609 5.3 12.099609 7L20.099609 7C20.699609 5.3 21.899609 5 24.099609 5C36.599609 5 41.099609 13.1 41.099609 18.5C41.099609 22.1 39.6 24.600781 37 26.800781C36.955218 26.837167 36.902831 26.871972 36.857422 26.908203C36.871247 26.871268 36.886793 26.838174 36.900391 26.800781C37.600391 25.100781 38 23.099219 38 20.699219C38 12.099219 31.900391 8.6007813 26.400391 7.3007812C27.300391 7.7007813 27.900391 8.3992187 28.400391 9.1992188C28.700391 9.7992188 28.900391 10.499219 28.900391 11.199219C31.900391 12.599219 34.900391 15.299609 34.900391 20.599609C34.900391 26.399609 31.900391 29.500391 30.900391 30.400391L30.613281 30.685547C29.333871 31.316929 27.977148 31.948696 26.447266 32.580078C27.051135 30.744042 28.022312 29.368763 29 28C30.5 25.9 32 23.8 32 20.5C32 17.2 30.400391 15 28.400391 13.5C28.300391 13.6 28.299219 13.700781 28.199219 13.800781C27.699219 14.500781 26.999219 15.199219 26.199219 15.699219C27.599219 16.599219 29 18 29 20.5C29 22.8 27.9 24.299219 26.5 26.199219C25 28.199219 23.3 30.500781 23 34.300781L23 34.365234C20.75371 35.743636 19.08303 37.121598 18 38.5C17.977615 38.524872 17.959515 38.547516 17.9375 38.572266C17.92395 38.545185 17.914354 38.527927 17.900391 38.5C17.500391 37.5 17 36 17 34.5C17 30.8 18.9 28.600781 21 26.300781C23 24.100781 25 21.900391 25 18.400391C25 17.900391 24.900391 17.4 24.900391 17C24.200391 19 22.899609 20.500781 21.099609 21.300781C20.499609 22.300781 19.700781 23.199219 18.800781 24.199219C16.600781 26.699219 14 29.500391 14 34.400391C14 37.400391 15.1 39.799219 16 41.199219C16.03069 41.252927 16.053475 41.280813 16.083984 41.332031C15.896597 41.628289 15.795988 42.00568 15.699219 42.199219C13.199219 40.599219 9 37 9 32C9 27.9 12.500781 25.599609 16.300781 23.099609C16.900781 22.699609 17.4 22.3 18 22L13 22L12.5 22C9.1 24.4 6 27.2 6 32C6 40.8 15.400781 45.600781 15.800781 45.800781C16.000781 45.900781 16.200391 46 16.400391 46C16.700391 46 16.899219 45.900781 17.199219 45.800781C17.599219 45.600781 17.9 45.099609 18 44.599609C18 44.399609 18.499609 39.400391 27.599609 35.400391C36.899609 31.300391 44 27.4 44 18.5C44 11.9 38.7 2 24 2 z M 9.0996094 9C7.2996094 9 6.3996094 10.399219 6.0996094 11.199219C5.9996094 11.499219 5.9992187 11.799609 6.1992188 12.099609L6.3007812 12.199219C6.1007813 12.599219 6 13 6 13.5C6 14.2 6.2007812 14.599219 6.3007812 14.699219C6.5007813 15.099219 7.0003906 15.299219 7.4003906 15.199219C7.9003906 15.099219 8.5 15 9 15C10.4 15 12 15.3 12 16C12 16.2 10.9 17 9 17C8.6 17 7.3996094 16.900391 7.0996094 16.900391C6.7996094 16.900391 6.5007812 16.999609 6.3007812 17.099609C6.1007812 17.299609 6 17.600391 6 17.900391C6 20.500391 7.3992188 21.7 8.1992188 22L8.5 22C8.8 22 9.1007813 21.799609 9.3007812 21.599609C10.400781 19.999609 13 20 13 20L18 20C21.2 20 23.1 17.900391 23.5 14.400391L23.800781 14.400391C24.900781 14.400391 26.099219 13.499219 26.699219 12.699219C27.099219 11.999219 27.099219 11.000781 26.699219 10.300781C26.299219 9.5007812 25.499609 9 24.599609 9L16.900391 9C17.000391 9.2 17 9.3 17 9.5C17 10.3 16.3 11 15.5 11C14.7 11 14 10.3 14 9.5C14 9.3 13.999609 9.2 14.099609 9L9.0996094 9 z" fill="#FFFFFF" />
</svg>