<svg xmlns="http://www.w3.org/2000/svg" width="68.942" height="67.714" viewBox="0 0 68.942 67.714">
  <path id="icon_music" d="M58.169,4h-39.4A14.66,14.66,0,0,0,4,18.51V57.2a14.66,14.66,0,0,0,14.773,14.51h39.4A14.66,14.66,0,0,0,72.942,57.2V18.51A14.66,14.66,0,0,0,58.169,4ZM54.886,41.082v6.483h0a8.145,8.145,0,0,1-8.2,8.027h-.821A5.807,5.807,0,0,1,41.6,53.735a5.609,5.609,0,0,1-1.456-4.361,5.9,5.9,0,0,1,5.952-5.067H48.32A3.257,3.257,0,0,0,51.6,41.082V25.29l-19.7,3.628v23.45A8.145,8.145,0,0,1,23.7,60.429h-.821a5.807,5.807,0,0,1-4.261-1.857A5.609,5.609,0,0,1,17.16,54.21a5.9,5.9,0,0,1,5.952-5.067h2.227a3.257,3.257,0,0,0,3.283-3.224V22.3a3.241,3.241,0,0,1,2.681-3.17l20.668-3.8A2.481,2.481,0,0,1,54,15.844a2.393,2.393,0,0,1,.89,1.861Z" transform="translate(-4 -4)" fill="#fff"/>
</svg>
