<svg xmlns="http://www.w3.org/2000/svg" width="70.703" height="67.714" viewBox="0 0 70.703 67.714">
  <path id="icon_spotify" d="M37.352,1.982C17.859,1.982,2,17.171,2,35.839S17.859,69.7,37.352,69.7,72.7,54.509,72.7,35.839,56.844,1.982,37.352,1.982ZM52.315,51.057a2.331,2.331,0,0,1-1.921.983,2.363,2.363,0,0,1-1.277-.371c-3.8-2.426-10.243-4.045-15.621-4.044A36.841,36.841,0,0,0,23.47,48.984a2.324,2.324,0,0,1-2.915-1.395A2.187,2.187,0,0,1,22.013,44.8,41.39,41.39,0,0,1,33.5,43.213c5.377,0,12.857,1.386,18.179,4.784A2.149,2.149,0,0,1,52.315,51.057Zm4.6-9.035a2.666,2.666,0,0,1-2.242,1.19,2.7,2.7,0,0,1-1.392-.383c-6.889-4.111-13.969-4.981-20.069-4.929a63.558,63.558,0,0,0-12.487,1.343A2.661,2.661,0,0,1,17.466,37.5a2.513,2.513,0,0,1,1.819-3.12A62.617,62.617,0,0,1,32.73,32.912c6.86-.054,15.409.9,23.34,5.63A2.465,2.465,0,0,1,56.912,42.022ZM61.5,31.457a3.1,3.1,0,0,1-2.653,1.452,3.179,3.179,0,0,1-1.553-.4C49.262,27.99,39.5,27.032,32.724,27.024h-.1A75.046,75.046,0,0,0,18.06,28.419a3.082,3.082,0,0,1-3.689-2.2,2.939,2.939,0,0,1,2.292-3.532,80.166,80.166,0,0,1,15.963-1.549h.106c7.536.01,18.454,1.108,27.671,6.291A2.877,2.877,0,0,1,61.5,31.457Z" transform="translate(-2 -1.982)" fill="#fff"/>
</svg>
