<svg xmlns="http://www.w3.org/2000/svg" width="62.691" height="36.96" viewBox="0 0 62.691 36.96">
  <path id="icons8_soundcloud" d="M37.615,11A13.3,13.3,0,0,0,26.33,17.93V47.96H53.288c5.143,0,9.4-5.024,9.4-11.088s-4.261-11.088-9.4-11.088a8.134,8.134,0,0,0-1.881.277C50.78,17.635,44.888,11,37.615,11Zm-16.3,7.392a13.055,13.055,0,0,0-2.508.277V47.96h2.508Zm1.254,0V47.96h2.508V19.131A13.2,13.2,0,0,0,22.569,18.392Zm-5.015.739a15.184,15.184,0,0,0-2.508,1.478V47.96h2.508Zm-3.761,2.68a12.613,12.613,0,0,0-2.508,3.835V47.96h2.508ZM8.15,27.262a2.163,2.163,0,0,0-.627.139v20.42a3.584,3.584,0,0,0,1.254.139h1.254V27.4a3.581,3.581,0,0,0-1.254-.139C8.591,27.262,8.37,27.245,8.15,27.262Zm-1.881.462A6.421,6.421,0,0,0,3.761,29.2V46.02A9,9,0,0,0,6.269,47.5ZM2.508,30.358a11.744,11.744,0,0,0,0,14.507Z" transform="translate(0 -11)" fill="#fff"/>
</svg>
