<svg xmlns="http://www.w3.org/2000/svg" width="146.101" height="141.87" viewBox="0 0 146.101 141.87">
  <path id="Logo-Gold" d="M75.206,2C64.44,2,57.906,4.579,53.676,8.449H42.525c-6.921,0-12.3,4.192-13.074,9.673H60.209c2.307-5.481,6.921-6.449,15.379-6.449,48.059,0,65.361,26.117,65.361,43.528,0,11.608-5.766,19.671-15.762,26.764-.172.117-.374.23-.548.346.053-.119.113-.226.165-.346a43.888,43.888,0,0,0,4.228-19.674c0-27.729-23.451-39.009-44.6-43.2a16.725,16.725,0,0,1,7.69,6.121,12.829,12.829,0,0,1,1.922,6.449c11.534,4.514,23.068,13.221,23.068,30.31a39.091,39.091,0,0,1-15.379,31.6l-1.1.919C95.713,96.527,90.5,98.564,84.615,100.6c2.321-5.92,6.055-10.354,9.815-14.768,5.767-6.771,11.534-13.542,11.534-24.182s-6.15-17.734-13.84-22.57c-.384.322-.389.647-.774.97a26.522,26.522,0,0,1-7.69,6.121c5.383,2.9,10.768,7.419,10.768,15.479,0,7.416-4.229,12.25-9.612,18.376-5.767,6.449-12.3,13.87-13.457,26.122v.208q-12.955,6.667-19.224,13.332c-.086.08-.156.153-.24.233-.052-.087-.089-.143-.143-.233-1.538-3.224-3.462-8.061-3.462-12.9,0-11.93,7.305-19.021,15.379-26.437C71.361,73.26,79.05,66.165,79.05,54.88c0-1.612-.383-3.226-.383-4.515A24.727,24.727,0,0,1,64.054,64.232a65.829,65.829,0,0,1-8.838,9.345c-8.458,8.061-18.458,17.093-18.458,32.892a36.612,36.612,0,0,0,7.69,21.922c.118.173.206.263.323.428a21.593,21.593,0,0,0-1.479,2.8c-9.612-5.159-25.757-16.764-25.757-32.885,0-13.22,13.46-20.637,28.07-28.7a65.024,65.024,0,0,1,6.533-3.545H30.991C17.919,74.225,6,83.253,6,98.73c0,28.374,36.144,43.853,37.682,44.5a6.2,6.2,0,0,0,2.305.642,10.455,10.455,0,0,0,3.071-.642,5.7,5.7,0,0,0,3.079-3.873c0-.645,1.921-16.764,36.908-29.661C124.8,96.474,152.1,83.9,152.1,55.2,152.1,33.921,131.723,2,75.206,2ZM17.917,24.57A12.306,12.306,0,0,0,6.383,31.661a2.711,2.711,0,0,0,.383,2.9l.39.321A7.782,7.782,0,0,0,6,39.08a5.479,5.479,0,0,0,1.156,3.867,4.165,4.165,0,0,0,4.228,1.612,39.8,39.8,0,0,1,6.15-.642c5.383,0,11.534.967,11.534,3.224,0,.645-4.229,3.224-11.534,3.224-1.538,0-6.153-.321-7.307-.321a8.352,8.352,0,0,0-3.071.642A3.357,3.357,0,0,0,6,53.268c0,8.383,5.38,12.251,8.455,13.218h1.156A5.135,5.135,0,0,0,18.691,65.2c4.229-5.159,14.223-5.158,14.223-5.158H52.137c12.3,0,19.608-6.77,21.146-18.055H74.44c4.229,0,8.837-2.906,11.144-5.485a7.058,7.058,0,0,0,0-7.733,9.269,9.269,0,0,0-8.072-4.194h-29.6a2.513,2.513,0,0,1,.383,1.612c0,2.579-2.691,4.836-5.767,4.836s-5.767-2.257-5.767-4.836a2.513,2.513,0,0,1,.383-1.612Z" transform="translate(-6 -2)" fill="rgba(185,131,4,0.74)"/>
</svg>
