<svg xmlns="http://www.w3.org/2000/svg" width="40.8" height="40.01" viewBox="0 0 40.8 40.01">
  <path id="Path_1" data-name="Path 1" d="M17.14.5H2.474A1.955,1.955,0,0,0,.5,2.436V16.818a1.955,1.955,0,0,0,1.974,1.936H17.14a1.955,1.955,0,0,0,1.974-1.936V2.436A1.955,1.955,0,0,0,17.14.5ZM15.166,14.882H4.448V4.372H15.166v10.51ZM39.326.5H24.66a1.955,1.955,0,0,0-1.974,1.936V16.818a1.955,1.955,0,0,0,1.974,1.936H39.326A1.955,1.955,0,0,0,41.3,16.818V2.436A1.955,1.955,0,0,0,39.326.5ZM37.352,14.882H26.634V4.372H37.352ZM17.14,22.256H2.474A1.955,1.955,0,0,0,.5,24.192V38.574A1.955,1.955,0,0,0,2.474,40.51H17.14a1.955,1.955,0,0,0,1.974-1.936V24.192A1.955,1.955,0,0,0,17.14,22.256ZM15.166,36.638H4.448V26.128H15.166v10.51Zm24.16-14.382H24.66a1.955,1.955,0,0,0-1.974,1.936V38.574A1.955,1.955,0,0,0,24.66,40.51H39.326A1.955,1.955,0,0,0,41.3,38.574V24.192A1.955,1.955,0,0,0,39.326,22.256ZM37.352,36.638H26.634V26.128H37.352Z" transform="translate(-0.5 -0.5)" fill="#fff"/>
</svg>
