<?xml version="1.0" encoding="utf-8"?>
<svg xmlns="http://www.w3.org/2000/svg" viewBox="0 0 50 50" width="100" height="100">
  <path d="M27.076172 2.0273438C23.7824 2.1123065 21.002542 2.8870093 19.367188 4.2265625C18.629722 4.8306359 18.299278 5.442465 18.082031 5.6757812C17.864785 5.9090975 17.825167 6 17 6C14.3 6 12.692318 6.8574992 11.857422 7.859375C11.532465 8.2493228 11.353911 8.6437964 11.228516 9L8 9 A 1.0001 1.0001 0 0 0 7.8886719 9.0058594C6.4406805 9.1693702 5.4405822 9.7999166 4.8554688 10.414062C4.2703553 11.02821 4.046875 11.697266 4.046875 11.697266 A 1.0001 1.0001 0 0 0 4.6796875 12.945312C4.6516445 12.977013 4.6022695 12.990257 4.5761719 13.023438C4.0710154 13.665522 3.977754 14.420189 4.0039062 15.056641C4.0562112 16.329544 4.5917969 17.419922 4.5917969 17.419922 A 1.0001 1.0001 0 0 0 5.7949219 17.955078C5.7949219 17.955078 7.3536626 17.484364 8.8261719 17.371094C9.5624265 17.314455 10.2658 17.373565 10.625 17.511719C10.9842 17.649873 11 17.611111 11 18C11 18.388889 10.90912 18.482229 10.509766 18.697266C10.110411 18.912303 9.4100828 19.072271 8.6738281 19.128906C7.2013188 19.242176 5.6523437 19.011719 5.6523438 19.011719 A 1.0001 1.0001 0 0 0 4.578125 19.611328C2.9971422 23.348197 5.1738281 26.5625 5.1738281 26.5625 A 1.0001 1.0001 0 0 0 6.8320312 26.554688C8.4053389 24.194713 13 24 13 24L15.457031 24C15.172294 24.150039 14.903887 24.293193 14.607422 24.449219C12.050268 25.795016 9.1506097 27.471351 7.1679688 30.445312C3.9593635 35.258221 5.0202628 39.812167 6.8964844 42.894531C8.772706 45.976895 11.425781 47.818359 11.425781 47.818359 A 1.0001 1.0001 0 0 0 12.986328 47.164062C13.159085 46.127522 14.200471 44.94071 16.009766 43.804688C17.819061 42.668664 20.294516 41.611577 22.945312 40.660156C28.246907 38.757315 34.187217 37.289331 37.392578 35.919922C48.802055 31.046075 50.354715 13.759986 40.615234 6.2109375 A 1.0005646 1.0005646 0 0 0 40.613281 6.2089844C40.587826 6.1892621 40.560679 6.173858 40.535156 6.1542969C36.826098 3.3116262 32.408152 2.163469 28.517578 2.0332031C28.02791 2.0168078 27.546711 2.0152062 27.076172 2.0273438 z M 28.451172 4.03125C30.014712 4.0836011 31.667956 4.3321841 33.3125 4.7949219C32.950786 4.7896779 32.579733 4.774099 32.236328 4.7890625C29.950284 4.8886745 28.069018 5.4157165 26.585938 6.0898438C24.439608 7.0654479 23.12011 8.3524099 22.541016 9L13.542969 9C14.00595 8.5290162 14.907946 8 17 8C18.174833 8 19.054372 7.5660431 19.546875 7.0371094C20.039378 6.5081756 20.209277 6.1203641 20.632812 5.7734375C21.765836 4.8453554 24.879518 3.9116623 28.451172 4.03125 z M 32.326172 6.7734375C34.312747 6.6874572 36.696978 6.981158 39.519531 7.9023438C40.520043 8.6989819 41.384205 9.618255 42.105469 10.632812C42.293965 10.897959 42.472954 11.170214 42.642578 11.447266C47.222435 18.927646 44.93833 30.521319 36.607422 34.080078C36.47371 34.137203 36.299923 34.199265 36.152344 34.257812C39.30798 30.115466 40 25.351424 40 22C40 17.791667 38.628941 14.421903 35.875 12.21875C33.392 10.23235 29.896947 9.220738 25.472656 9.0390625C25.990102 8.6647262 26.622002 8.2701841 27.414062 7.9101562C28.680982 7.3342836 30.299825 6.8611391 32.326172 6.7734375 z M 8.0976562 11L13 11 A 2 2 0 0 0 15 13 A 2 2 0 0 0 17 11L22.974609 11 A 1.0010464 1.0010464 0 0 0 23.041016 11L23.3125 11C24.162468 11 24.626337 11.84949 24.154297 12.548828C23.644886 13.301854 22.417132 14 22 14 A 1.0001 1.0001 0 0 0 21 15C21 17 20.95479 18.906541 20.451172 20.115234C20.344132 20.372131 20.222615 20.599242 20.083984 20.806641C20.02553 20.892064 19.958793 20.976604 19.888672 21.060547C19.364822 21.666361 18.553304 22 17 22L13 22C13 22 9.0196092 22.0083 6.3574219 24.347656C6.0401569 23.557055 5.8655699 22.501098 6.28125 21.023438C6.8637123 21.093927 7.5257298 21.221124 8.8261719 21.121094C9.7149172 21.052724 10.639589 20.900197 11.458984 20.458984C12.27838 20.017767 13 19.111111 13 18C13 16.888889 12.2033 15.975127 11.34375 15.644531C10.4842 15.313935 9.5625735 15.310541 8.6738281 15.378906C7.4177684 15.475526 6.8258393 15.686153 6.2226562 15.849609C6.117457 15.528316 6.0179982 15.365088 6.0019531 14.974609C5.9872304 14.616311 6.0604378 14.373572 6.1484375 14.261719C6.2364372 14.149866 6.3793531 14.007983 7.0117188 14 A 1.0001 1.0001 0 0 0 8 13L8 12 A 1.0001 1.0001 0 0 0 7.6152344 11.212891C7.8158295 11.151252 7.8313977 11.031321 8.0976562 11 z M 26.115234 11.074219C29.894546 11.32466 32.720408 12.257576 34.625 13.78125C36.871059 15.578097 38 18.208333 38 22C38 25.833333 37.061922 31.4803 32.109375 35.607422 A 1.0001 1.0001 0 0 0 32.085938 35.628906C30.244295 36.200875 28.220514 36.816159 26.074219 37.501953C25.835512 34.454977 27.184216 32.379858 28.833984 30.244141C30.688763 27.843026 33.034723 25.451585 33 21.990234C32.95244 17.234717 31.031201 14.378155 29.085938 12.839844C28.013155 11.991489 26.960144 11.543228 26.199219 11.292969C26.179208 11.21733 26.140859 11.148112 26.115234 11.074219 z M 25.998047 13.345703C26.526516 13.557836 27.168084 13.874296 27.845703 14.410156C29.377938 15.621845 30.957555 17.765283 31 22.009766C31.02528 24.529415 29.190174 26.512349 27.251953 29.021484C25.450888 31.353064 23.668527 34.220855 24.126953 38.154297C23.506067 38.363023 22.880134 38.558187 22.269531 38.777344C20.510387 39.408734 18.827358 40.092176 17.296875 40.835938C17.055772 40.554433 16.700584 40.080809 16.375 39.183594C15.899752 37.873949 15.67492 35.989884 16.902344 33.431641C17.621437 31.932217 18.889031 30.692611 20.208984 29.617188C21.528938 28.541764 22.870531 27.687625 23.759766 26.650391C26.925654 22.956855 27.287738 19.548084 26.722656 17.146484C26.413216 15.831363 25.853376 14.836919 25.396484 14.173828C25.542085 14.01187 25.689294 13.850356 25.8125 13.667969C25.883439 13.562872 25.943047 13.454766 25.998047 13.345703 z M 23.806641 15.373047C24.137806 15.865446 24.542587 16.605799 24.777344 17.603516C25.212262 19.451916 25.074346 22.043145 22.240234 25.349609C21.693469 25.987375 20.357312 26.91758 18.947266 28.066406C17.537219 29.215232 16.022563 30.639783 15.097656 32.568359C13.65408 35.577116 13.866091 38.131083 14.496094 39.867188C14.792554 40.684145 15.182288 41.321186 15.515625 41.785156C15.328634 41.894474 15.124018 41.997169 14.945312 42.109375C13.45198 43.047011 12.398319 44.179597 11.712891 45.455078C10.911007 44.786183 9.7198953 43.689521 8.6035156 41.855469C6.9797372 39.187833 6.0406365 35.741779 8.8320312 31.554688C10.50539 29.044649 13.041466 27.533203 15.539062 26.21875C18.036659 24.904297 20.532301 23.869194 21.845703 21.783203L21.808594 21.759766C21.999137 21.482752 22.169957 21.194055 22.298828 20.884766C22.960051 19.29783 22.983729 17.475576 22.984375 15.689453C23.2667 15.6062 23.542189 15.499685 23.806641 15.373047 z" fill="#FFFFFF" />
</svg>